<svg version="1.1" id="Layer_1" xmlns="http://www.w3.org/2000/svg" xmlns:xlink="http://www.w3.org/1999/xlink" x="0px" y="0px"
	 width="100%" viewBox="0 0 512 512" enable-background="new 0 0 512 512" xml:space="preserve">
<path fill="#000000" opacity="1.000000" stroke="none" 
	d="
M241.000000,513.000000 
	C160.686142,513.000000 80.872284,513.000000 1.029214,513.000000 
	C1.029214,342.394440 1.029214,171.788895 1.029214,1.091669 
	C171.563873,1.091669 342.127838,1.091669 512.845886,1.091669 
	C512.845886,171.666565 512.845886,342.333252 512.845886,513.000000 
	C422.455536,513.000000 331.977753,513.000000 241.000000,513.000000 
M144.932022,165.464401 
	C144.628830,165.365051 144.325653,165.265717 143.537979,165.007111 
	C143.372833,164.966782 143.207703,164.926468 142.992264,164.186584 
	C138.168106,160.513046 133.343964,156.839508 128.068008,152.632446 
	C116.464828,147.424530 104.502121,145.297104 91.947159,148.514969 
	C73.181145,153.324722 59.994781,164.855270 53.735012,183.006607 
	C48.874928,197.099274 49.184685,211.534119 56.993454,225.768677 
	C60.623928,230.526138 64.254402,235.283600 68.185310,240.671600 
	C73.776482,243.820419 79.367653,246.969238 85.329636,250.771286 
	C88.558060,251.721024 91.786484,252.670776 93.997299,253.321167 
	C89.522224,254.380981 84.240311,255.631882 78.179115,256.985504 
	C54.080498,264.238434 35.896534,278.874054 24.101439,301.083618 
	C21.118870,306.699615 19.442039,313.009094 16.803415,319.709259 
	C15.287571,327.905060 13.771728,336.100861 12.155828,344.837616 
	C24.231800,344.837616 35.113224,344.837616 46.923512,344.980194 
	C55.284245,344.935364 63.644981,344.890533 72.904732,344.986267 
	C75.938713,344.939819 78.972687,344.893372 82.491623,344.962524 
	C82.491623,344.962524 82.975311,344.841705 83.906075,344.979370 
	C89.940483,344.934326 95.974899,344.889282 102.935875,344.988739 
	C118.047630,344.990540 133.160294,344.904510 148.270462,345.060181 
	C151.744217,345.095978 153.228989,344.337708 154.208893,340.543427 
	C156.014786,333.550934 158.192200,326.426514 161.641312,320.139709 
	C166.815262,310.708954 173.219543,301.953217 179.536301,292.240509 
	C175.738495,288.180573 171.394440,283.536682 166.783661,278.279816 
	C160.452713,273.666718 154.121765,269.053650 147.622086,264.150085 
	C147.622086,264.150085 147.286301,264.159943 147.022491,263.613525 
	C146.688507,263.465576 146.354507,263.317657 145.346222,262.834564 
	C139.559601,260.609131 133.772980,258.383698 127.165588,256.021973 
	C122.401276,255.146149 117.636963,254.270340 112.937157,253.406387 
	C126.857780,250.960999 138.508789,244.341202 147.016373,232.743515 
	C158.724335,216.782974 160.678619,199.450516 153.744278,180.279221 
	C150.869064,175.504303 147.993866,170.729385 144.932022,165.464401 
M304.924805,366.975067 
	C319.156586,366.975067 333.388367,366.975067 347.998901,366.975067 
	C347.959991,354.154236 345.683533,342.329102 340.751770,330.292847 
	C335.184601,321.822388 329.617432,313.351929 323.779175,304.275299 
	C317.200592,299.145691 310.621979,294.016113 303.752106,288.245300 
	C296.835571,285.219330 289.919037,282.193359 282.209778,279.003540 
	C277.391418,277.857910 272.573090,276.712280 267.057922,275.401001 
	C279.856079,273.018372 289.814423,266.895477 297.836060,257.625244 
	C304.938568,249.417236 309.046539,239.887604 309.975098,228.074570 
	C310.078735,220.238174 310.591858,212.351166 307.016388,204.197128 
	C303.713593,198.781891 300.410767,193.366669 296.831940,187.333939 
	C293.653870,184.493683 290.691193,181.354660 287.252411,178.876099 
	C280.340698,173.894348 272.687714,170.569992 263.155853,170.024368 
	C259.485474,170.016129 255.810196,169.880829 252.145523,170.021515 
	C235.915390,170.644653 223.795761,178.823044 213.996689,191.085617 
	C204.837479,202.547470 202.824188,215.863831 204.025299,230.815567 
	C205.984314,243.773407 211.604828,254.701874 222.176056,263.676544 
	C228.120651,267.062164 234.065247,270.447784 240.777222,273.976471 
	C242.569580,274.457825 244.361923,274.939209 246.540894,275.524414 
	C242.667770,276.495422 239.333130,277.331421 235.212097,278.027771 
	C229.863937,279.811829 224.304321,281.133850 219.207245,283.466553 
	C203.916199,290.464447 191.122101,300.780518 181.850662,314.844299 
	C175.800842,324.021301 170.441025,333.734650 168.182312,345.387451 
	C167.301163,352.456726 166.420013,359.526001 165.509186,366.833374 
	C169.056763,366.833374 171.528229,366.833374 174.927551,366.975281 
	C182.952667,366.927856 190.977768,366.880432 199.930008,366.975250 
	C209.953629,366.928253 219.977264,366.881226 230.928543,366.975861 
	C242.285172,366.927826 253.641785,366.879791 265.926544,366.973724 
	C278.616394,366.927063 291.306244,366.880371 304.924805,366.975067 
M358.041870,214.761932 
	C361.127106,225.729813 366.979156,234.888199 376.207581,242.673538 
	C378.528503,244.125366 380.703094,245.933624 383.199280,246.958572 
	C389.348541,249.483536 395.645569,251.648651 401.431519,254.018417 
	C401.431519,254.018417 401.000488,254.166031 400.126190,254.024719 
	C386.839630,254.772629 374.758026,259.131287 363.378387,265.896332 
	C351.581085,272.909729 342.099487,282.279663 334.197723,293.065369 
	C338.537384,298.880066 342.707886,304.468109 347.185669,310.696411 
	C351.752319,321.478516 356.318970,332.260651 361.037354,343.897369 
	C361.823120,344.263214 362.607819,344.943604 363.394775,344.946198 
	C371.263153,344.972015 379.131866,344.886292 387.928223,344.974030 
	C404.616394,344.926117 421.304596,344.878204 438.922211,344.971649 
	C459.519470,344.971649 480.116760,344.971649 501.027557,344.971649 
	C500.269897,326.637329 496.315155,309.828888 485.769012,294.255310 
	C479.557404,283.872192 470.918610,275.850525 460.825378,268.292816 
	C459.286133,267.437408 457.793945,266.479614 456.198578,265.746307 
	C451.835632,263.740936 447.429199,261.830139 442.674774,259.237091 
	C434.806335,257.146942 426.937897,255.056808 420.135284,253.249786 
	C445.333405,248.864563 465.604034,225.551193 462.974915,195.172546 
	C462.648071,193.113586 462.479706,191.014206 461.966888,189.002655 
	C459.772552,180.394989 456.834229,172.145370 449.785828,165.283905 
	C447.812500,163.308197 446.156647,160.751389 443.805664,159.466812 
	C437.019745,155.758987 429.953674,152.563828 422.268402,148.784622 
	C418.931641,148.190216 415.597870,147.102951 412.257629,147.082779 
	C393.061920,146.966873 376.885162,153.813782 365.857452,169.853333 
	C356.713379,183.153259 353.605621,198.043472 358.041870,214.761932 
z"/>
<path fill="#F96E57" opacity="1.000000" stroke="none" 
	d="
M78.958405,256.882782 
	C84.240311,255.631882 89.522224,254.380981 93.997299,253.321167 
	C91.786484,252.670776 88.558060,251.721024 85.230858,250.108185 
	C90.913094,243.305847 96.567101,237.040802 102.499847,231.051880 
	C117.954498,215.450912 133.514725,199.954269 149.088425,184.471939 
	C150.462494,183.105927 152.243027,182.148773 153.834763,181.001709 
	C160.678619,199.450516 158.724335,216.782974 147.016373,232.743515 
	C138.508789,244.341202 126.857780,250.960999 112.937157,253.406387 
	C117.636963,254.270340 122.401276,255.146149 127.549232,256.438904 
	C126.637413,258.720886 125.579857,260.819702 124.010933,262.415955 
	C99.083061,287.777740 74.059532,313.045624 49.182110,338.456604 
	C47.598877,340.073822 47.033539,342.687500 45.994652,344.837616 
	C35.113224,344.837616 24.231800,344.837616 12.155828,344.837616 
	C13.771728,336.100861 15.287571,327.905060 17.309776,319.266418 
	C20.313492,316.946533 23.089605,315.345428 25.263979,313.148712 
	C42.274960,295.962830 59.186993,278.678802 76.067024,261.364105 
	C77.283310,260.116486 78.006142,258.387787 78.958405,256.882782 
z"/>
<path fill="#F3357E" opacity="1.000000" stroke="none" 
	d="
M462.833832,196.000488 
	C465.604034,225.551193 445.333405,248.864563 420.135284,253.249786 
	C426.937897,255.056808 434.806335,257.146942 442.775208,259.900024 
	C441.906555,261.884430 441.083649,263.349701 439.946686,264.506165 
	C417.142181,287.701263 394.335205,310.894196 371.429871,333.989532 
	C368.178223,337.268158 364.413116,340.037628 360.885651,343.042755 
	C356.318970,332.260651 351.752319,321.478516 347.322815,310.199036 
	C364.624390,292.645233 381.809845,275.609802 398.903168,258.482391 
	C399.971405,257.412018 400.318085,255.621506 401.000488,254.166031 
	C401.000488,254.166031 401.431519,254.018417 401.998962,253.921936 
	C404.244141,252.517014 406.093079,251.377243 407.573334,249.874359 
	C423.980835,233.216461 440.296570,216.468033 456.750336,199.856262 
	C458.397156,198.193604 460.788177,197.268112 462.833832,196.000488 
z"/>
<path fill="#F6506C" opacity="1.000000" stroke="none" 
	d="
M173.999725,366.833374 
	C171.528229,366.833374 169.056763,366.833374 165.509186,366.833374 
	C166.420013,359.526001 167.301163,352.456726 168.867584,345.105591 
	C170.884506,343.865936 172.376984,343.069550 173.523911,341.926453 
	C193.342865,322.174194 213.131409,302.391327 232.876373,282.565125 
	C234.127533,281.308807 234.967331,279.642822 235.998489,278.167419 
	C239.333130,277.331421 242.667770,276.495422 246.540894,275.524414 
	C244.361923,274.939209 242.569580,274.457825 240.399719,273.538239 
	C240.870956,271.378876 241.350159,269.297546 242.623917,267.990692 
	C261.592621,248.529190 280.626251,229.130280 299.774261,209.845337 
	C301.804047,207.801041 304.649933,206.567032 307.117218,204.957138 
	C310.591858,212.351166 310.078735,220.238174 309.555969,228.566925 
	C307.506897,230.124023 305.624634,230.941330 304.293610,232.299057 
	C299.994324,236.684677 296.022614,241.392563 291.703552,245.757446 
	C253.914368,283.947479 216.061310,322.074341 178.302902,360.294739 
	C176.504715,362.114868 175.417862,364.637756 173.999725,366.833374 
z"/>
<path fill="#F75B64" opacity="1.000000" stroke="none" 
	d="
M221.888733,263.045685 
	C211.604828,254.701874 205.984314,243.773407 204.444016,230.379272 
	C206.723007,228.648331 208.838348,227.605621 210.404404,226.020309 
	C227.411774,208.803650 244.345154,191.513748 261.250214,174.196442 
	C262.369690,173.049652 263.094543,171.517609 264.002960,170.164764 
	C272.687714,170.569992 280.340698,173.894348 287.252411,178.876099 
	C290.691193,181.354660 293.653870,184.493683 296.679962,187.819397 
	C271.648224,213.218445 246.768478,238.132065 221.888733,263.045685 
z"/>
<path fill="#F22987" opacity="1.000000" stroke="none" 
	d="
M437.992767,344.830322 
	C421.304596,344.878204 404.616394,344.926117 387.494110,344.554749 
	C388.362549,342.267792 389.423279,340.159668 391.004517,338.569000 
	C410.036194,319.423645 429.128052,300.338013 448.246674,281.279327 
	C452.458710,277.080505 456.836823,273.048279 461.138458,268.939331 
	C470.918610,275.850525 479.557404,283.872192 485.730957,294.861572 
	C471.057861,310.214203 456.404236,324.942169 441.816345,339.734985 
	C440.338867,341.233246 439.257812,343.122498 437.992767,344.830322 
z"/>
<path fill="#F54474" opacity="1.000000" stroke="none" 
	d="
M375.886932,242.048157 
	C366.979156,234.888199 361.127106,225.729813 358.443024,214.340240 
	C359.561707,213.534531 360.425537,213.296570 360.975616,212.745422 
	C380.753601,192.929153 400.513214,173.094452 420.226868,153.214203 
	C421.359222,152.072281 422.083466,150.525650 422.997620,149.167358 
	C429.953674,152.563828 437.019745,155.758987 443.805664,159.466812 
	C446.156647,160.751389 447.812500,163.308197 449.740479,165.878815 
	C447.990906,168.288345 446.318665,170.134293 444.577545,171.912903 
	C421.686340,195.296860 398.785431,218.671326 375.886932,242.048157 
z"/>
<path fill="#F64C6F" opacity="1.000000" stroke="none" 
	d="
M174.463654,366.904358 
	C175.417862,364.637756 176.504715,362.114868 178.302902,360.294739 
	C216.061310,322.074341 253.914368,283.947479 291.703552,245.757446 
	C296.022614,241.392563 299.994324,236.684677 304.293610,232.299057 
	C305.624634,230.941330 307.506897,230.124023 309.485168,229.029388 
	C309.046539,239.887604 304.938568,249.417236 297.836060,257.625244 
	C289.814423,266.895477 279.856079,273.018372 267.057922,275.401001 
	C272.573090,276.712280 277.391418,277.857910 282.575989,279.433838 
	C281.642212,281.729614 280.585815,283.837677 279.005737,285.424225 
	C253.760468,310.772644 228.436142,336.042328 203.179947,361.379913 
	C201.577148,362.987854 200.385681,365.005798 199.002884,366.833038 
	C190.977768,366.880432 182.952667,366.927856 174.463654,366.904358 
z"/>
<path fill="#FB7E4B" opacity="1.000000" stroke="none" 
	d="
M56.886795,225.046188 
	C49.184685,211.534119 48.874928,197.099274 53.735012,183.006607 
	C59.994781,164.855270 73.181145,153.324722 91.947159,148.514969 
	C104.502121,145.297104 116.464828,147.424530 128.088501,153.239441 
	C127.264542,154.870148 126.497780,155.971436 125.564270,156.906219 
	C103.591049,178.909119 81.602837,200.897079 59.600098,222.870468 
	C58.784668,223.684830 57.795170,224.324890 56.886795,225.046188 
z"/>
<path fill="#F43B7A" opacity="1.000000" stroke="none" 
	d="
M376.047241,242.360855 
	C398.785431,218.671326 421.686340,195.296860 444.577545,171.912903 
	C446.318665,170.134293 447.990906,168.288345 449.872253,166.184052 
	C456.834229,172.145370 459.772552,180.394989 461.966888,189.002655 
	C462.479706,191.014206 462.648071,193.113586 462.904358,195.586517 
	C460.788177,197.268112 458.397156,198.193604 456.750336,199.856262 
	C440.296570,216.468033 423.980835,233.216461 407.573334,249.874359 
	C406.093079,251.377243 404.244141,252.517014 402.224792,253.891953 
	C395.645569,251.648651 389.348541,249.483536 383.199280,246.958572 
	C380.703094,245.933624 378.528503,244.125366 376.047241,242.360855 
z"/>
<path fill="#F54474" opacity="1.000000" stroke="none" 
	d="
M199.466446,366.904144 
	C200.385681,365.005798 201.577148,362.987854 203.179947,361.379913 
	C228.436142,336.042328 253.760468,310.772644 279.005737,285.424225 
	C280.585815,283.837677 281.642212,281.729614 282.972351,279.515808 
	C289.919037,282.193359 296.835571,285.219330 303.815247,288.906067 
	C303.141266,290.653290 302.538330,291.867188 301.646027,292.806152 
	C293.868652,300.990173 286.143280,309.227692 278.203156,317.252106 
	C263.470245,332.141388 248.583969,346.878815 233.820877,361.738403 
	C232.339050,363.229889 231.264450,365.125916 230.000885,366.834229 
	C219.977264,366.881226 209.953629,366.928253 199.466446,366.904144 
z"/>
<path fill="#F8615F" opacity="1.000000" stroke="none" 
	d="
M147.790833,264.440552 
	C154.121765,269.053650 160.452713,273.666718 166.727386,278.868286 
	C163.056961,282.861664 159.321869,286.147980 155.848969,289.691315 
	C137.865524,308.039490 119.949097,326.453308 102.009308,344.844269 
	C95.974899,344.889282 89.940483,344.934326 83.327850,344.837494 
	C82.478081,344.604462 82.230431,344.654877 82.006668,344.846924 
	C78.972687,344.893372 75.938713,344.939819 72.455902,344.531006 
	C73.224030,341.664612 73.930702,338.749969 75.736565,336.919983 
	C94.662155,317.741333 113.772926,298.745514 132.810516,279.677155 
	C137.842621,274.636902 142.799438,269.521454 147.790833,264.440552 
z"/>
<path fill="#F54176" opacity="1.000000" stroke="none" 
	d="
M230.464722,366.905029 
	C231.264450,365.125916 232.339050,363.229889 233.820877,361.738403 
	C248.583969,346.878815 263.470245,332.141388 278.203156,317.252106 
	C286.143280,309.227692 293.868652,300.990173 301.646027,292.806152 
	C302.538330,291.867188 303.141266,290.653290 303.960876,289.226685 
	C310.621979,294.016113 317.200592,299.145691 323.738281,304.869385 
	C309.439453,319.834381 295.078308,334.105072 280.974396,348.625641 
	C275.356171,354.409851 270.306793,360.746552 264.998413,366.831726 
	C253.641785,366.879791 242.285172,366.927826 230.464722,366.905029 
z"/>
<path fill="#F9675B" opacity="1.000000" stroke="none" 
	d="
M147.706451,264.295319 
	C142.799438,269.521454 137.842621,274.636902 132.810516,279.677155 
	C113.772926,298.745514 94.662155,317.741333 75.736565,336.919983 
	C73.930702,338.749969 73.224030,341.664612 72.006393,344.460693 
	C63.644981,344.890533 55.284245,344.935364 46.459084,344.908905 
	C47.033539,342.687500 47.598877,340.073822 49.182110,338.456604 
	C74.059532,313.045624 99.083061,287.777740 124.010933,262.415955 
	C125.579857,260.819702 126.637413,258.720886 127.959625,256.507050 
	C133.772980,258.383698 139.559601,260.609131 145.879089,263.180969 
	C146.703400,263.738220 146.994843,263.949097 147.286301,264.159943 
	C147.286301,264.159943 147.622086,264.150085 147.706451,264.295319 
z"/>
<path fill="#F75B64" opacity="1.000000" stroke="none" 
	d="
M102.472595,344.916504 
	C119.949097,326.453308 137.865524,308.039490 155.848969,289.691315 
	C159.321869,286.147980 163.056961,282.861664 166.860748,279.174805 
	C171.394440,283.536682 175.738495,288.180573 179.536301,292.240509 
	C173.219543,301.953217 166.815262,310.708954 161.641312,320.139709 
	C158.192200,326.426514 156.014786,333.550934 154.208893,340.543427 
	C153.228989,344.337708 151.744217,345.095978 148.270462,345.060181 
	C133.160294,344.904510 118.047630,344.990540 102.472595,344.916504 
z"/>
<path fill="#FA794F" opacity="1.000000" stroke="none" 
	d="
M56.940125,225.407440 
	C57.795170,224.324890 58.784668,223.684830 59.600098,222.870468 
	C81.602837,200.897079 103.591049,178.909119 125.564270,156.906219 
	C126.497780,155.971436 127.264542,154.870148 128.314392,153.506195 
	C133.343964,156.839508 138.168106,160.513046 142.935013,164.876587 
	C141.791580,167.004517 140.857208,168.593826 139.596664,169.857880 
	C117.333771,192.182953 95.044830,214.482132 72.703506,236.728668 
	C71.344917,238.081467 69.502281,238.948166 67.884880,240.041061 
	C64.254402,235.283600 60.623928,230.526138 56.940125,225.407440 
z"/>
<path fill="#F43B7A" opacity="1.000000" stroke="none" 
	d="
M265.462463,366.902710 
	C270.306793,360.746552 275.356171,354.409851 280.974396,348.625641 
	C295.078308,334.105072 309.439453,319.834381 323.873840,305.172485 
	C329.617432,313.351929 335.184601,321.822388 340.425232,330.653564 
	C338.263947,331.977844 336.045532,332.561798 334.656250,333.966034 
	C325.013000,343.712799 315.525635,353.614288 306.043182,363.518707 
	C305.164886,364.436096 304.669342,365.720001 303.996094,366.833679 
	C291.306244,366.880371 278.616394,366.927063 265.462463,366.902710 
z"/>
<path fill="#F32E84" opacity="1.000000" stroke="none" 
	d="
M460.981934,268.616058 
	C456.836823,273.048279 452.458710,277.080505 448.246674,281.279327 
	C429.128052,300.338013 410.036194,319.423645 391.004517,338.569000 
	C389.423279,340.159668 388.362549,342.267792 387.030243,344.483734 
	C379.131866,344.886292 371.263153,344.972015 363.394775,344.946198 
	C362.607819,344.943604 361.823120,344.263214 360.961487,343.470062 
	C364.413116,340.037628 368.178223,337.268158 371.429871,333.989532 
	C394.335205,310.894196 417.142181,287.701263 439.946686,264.506165 
	C441.083649,263.349701 441.906555,261.884430 442.957825,260.222412 
	C447.429199,261.830139 451.835632,263.740936 456.198578,265.746307 
	C457.793945,266.479614 459.286133,267.437408 460.981934,268.616058 
z"/>
<path fill="#F75568" opacity="1.000000" stroke="none" 
	d="
M222.032394,263.361115 
	C246.768478,238.132065 271.648224,213.218445 296.817963,188.128143 
	C300.410767,193.366669 303.713593,198.781891 307.066803,204.577133 
	C304.649933,206.567032 301.804047,207.801041 299.774261,209.845337 
	C280.626251,229.130280 261.592621,248.529190 242.623917,267.990692 
	C241.350159,269.297546 240.870956,271.378876 240.016022,273.466705 
	C234.065247,270.447784 228.120651,267.062164 222.032394,263.361115 
z"/>
<path fill="#F64C6F" opacity="1.000000" stroke="none" 
	d="
M422.632996,148.975983 
	C422.083466,150.525650 421.359222,152.072281 420.226868,153.214203 
	C400.513214,173.094452 380.753601,192.929153 360.975616,212.745422 
	C360.425537,213.296570 359.561707,213.534531 358.505859,213.958664 
	C353.605621,198.043472 356.713379,183.153259 365.857452,169.853333 
	C376.885162,153.813782 393.061920,146.966873 412.257629,147.082779 
	C415.597870,147.102951 418.931641,148.190216 422.632996,148.975983 
z"/>
<path fill="#FA7452" opacity="1.000000" stroke="none" 
	d="
M68.035095,240.356323 
	C69.502281,238.948166 71.344917,238.081467 72.703506,236.728668 
	C95.044830,214.482132 117.333771,192.182953 139.596664,169.857880 
	C140.857208,168.593826 141.791580,167.004517 142.960159,165.226364 
	C143.207703,164.926468 143.372833,164.966782 143.947815,165.238434 
	C144.593704,165.658951 144.847382,165.820526 145.118668,165.954468 
	C147.993866,170.729385 150.869064,175.504303 153.789520,180.640472 
	C152.243027,182.148773 150.462494,183.105927 149.088425,184.471939 
	C133.514725,199.954269 117.954498,215.450912 102.499847,231.051880 
	C96.567101,237.040802 90.913094,243.305847 85.045456,249.781555 
	C79.367653,246.969238 73.776482,243.820419 68.035095,240.356323 
z"/>
<path fill="#F11F8E" opacity="1.000000" stroke="none" 
	d="
M438.457489,344.900970 
	C439.257812,343.122498 440.338867,341.233246 441.816345,339.734985 
	C456.404236,324.942169 471.057861,310.214203 485.869507,295.177582 
	C496.315155,309.828888 500.269897,326.637329 501.027557,344.971649 
	C480.116760,344.971649 459.519470,344.971649 438.457489,344.900970 
z"/>
<path fill="#F8615F" opacity="1.000000" stroke="none" 
	d="
M263.579407,170.094559 
	C263.094543,171.517609 262.369690,173.049652 261.250214,174.196442 
	C244.345154,191.513748 227.411774,208.803650 210.404404,226.020309 
	C208.838348,227.605621 206.723007,228.648331 204.514221,229.973297 
	C202.824188,215.863831 204.837479,202.547470 213.996689,191.085617 
	C223.795761,178.823044 235.915390,170.644653 252.145523,170.021515 
	C255.810196,169.880829 259.485474,170.016129 263.579407,170.094559 
z"/>
<path fill="#F43B7A" opacity="1.000000" stroke="none" 
	d="
M400.563354,254.095367 
	C400.318085,255.621506 399.971405,257.412018 398.903168,258.482391 
	C381.809845,275.609802 364.624390,292.645233 347.169159,309.878876 
	C342.707886,304.468109 338.537384,298.880066 334.197723,293.065369 
	C342.099487,282.279663 351.581085,272.909729 363.378387,265.896332 
	C374.758026,259.131287 386.839630,254.772629 400.563354,254.095367 
z"/>
<path fill="#F75568" opacity="1.000000" stroke="none" 
	d="
M235.605286,278.097595 
	C234.967331,279.642822 234.127533,281.308807 232.876373,282.565125 
	C213.131409,302.391327 193.342865,322.174194 173.523911,341.926453 
	C172.376984,343.069550 170.884506,343.865936 169.210052,344.889191 
	C170.441025,333.734650 175.800842,324.021301 181.850662,314.844299 
	C191.122101,300.780518 203.916199,290.464447 219.207245,283.466553 
	C224.304321,281.133850 229.863937,279.811829 235.605286,278.097595 
z"/>
<path fill="#F3357E" opacity="1.000000" stroke="none" 
	d="
M304.460449,366.904388 
	C304.669342,365.720001 305.164886,364.436096 306.043182,363.518707 
	C315.525635,353.614288 325.013000,343.712799 334.656250,333.966034 
	C336.045532,332.561798 338.263947,331.977844 340.465393,331.005188 
	C345.683533,342.329102 347.959991,354.154236 347.998901,366.975067 
	C333.388367,366.975067 319.156586,366.975067 304.460449,366.904388 
z"/>
<path fill="#FA7452" opacity="1.000000" stroke="none" 
	d="
M78.568756,256.934143 
	C78.006142,258.387787 77.283310,260.116486 76.067024,261.364105 
	C59.186993,278.678802 42.274960,295.962830 25.263979,313.148712 
	C23.089605,315.345428 20.313492,316.946533 17.490665,318.911743 
	C19.442039,313.009094 21.118870,306.699615 24.101439,301.083618 
	C35.896534,278.874054 54.080498,264.238434 78.568756,256.934143 
z"/>
<path fill="#F9675B" opacity="1.000000" stroke="none" 
	d="
M82.249146,344.904724 
	C82.230431,344.654877 82.478081,344.604462 82.862473,344.768677 
	C82.975311,344.841705 82.491623,344.962524 82.249146,344.904724 
z"/>
<path fill="#F8615F" opacity="1.000000" stroke="none" 
	d="
M147.154388,263.886719 
	C146.994843,263.949097 146.703400,263.738220 146.216232,263.348541 
	C146.354507,263.317657 146.688507,263.465576 147.154388,263.886719 
z"/>
<path fill="#FA794F" opacity="1.000000" stroke="none" 
	d="
M145.025345,165.709442 
	C144.847382,165.820526 144.593704,165.658951 144.190048,165.318054 
	C144.325653,165.265717 144.628830,165.365051 145.025345,165.709442 
z"/>
</svg>